<svg width="18" height="19" viewBox="0 0 18 19" fill="none" xmlns="http://www.w3.org/2000/svg">
<path d="M16.9681 9.93798L15.4681 7.68798C15.4569 7.67118 15.4404 7.65937 15.4275 7.644C15.4128 7.62628 15.3984 7.60985 15.3817 7.59423C15.3468 7.56146 15.3082 7.53513 15.2662 7.51215C15.2495 7.50304 15.2349 7.49183 15.2174 7.48446C15.2104 7.48152 15.2049 7.47604 15.1978 7.47338L12.9478 6.62963C12.6585 6.52123 12.3333 6.66772 12.2234 6.95885C12.1143 7.24963 12.2615 7.57372 12.5523 7.68285L13.3981 7.99998L9.00005 9.6494L4.60213 8.00003L5.19805 7.7766C5.48883 7.66747 5.63604 7.34337 5.52691 7.0526C5.41851 6.7611 5.09332 6.61388 4.80255 6.72338L2.8023 7.47338C2.79507 7.47608 2.7894 7.48167 2.7823 7.48469C2.76527 7.49187 2.75113 7.50277 2.73492 7.51156C2.69226 7.53477 2.65312 7.56151 2.61783 7.59478C2.60162 7.60998 2.58766 7.62601 2.57319 7.64326C2.5601 7.65887 2.5434 7.67091 2.53204 7.68798L1.03204 9.93798C0.936829 10.0808 0.911921 10.2592 0.964661 10.4228C1.01739 10.5862 1.14191 10.7165 1.30231 10.7766L2.43756 11.2023V13.7107C2.43756 14.5651 2.97516 15.3411 3.7757 15.6417L8.80231 17.5266C8.86603 17.5504 8.93341 17.5625 9.00006 17.5625C9.06672 17.5625 9.1341 17.5504 9.19782 17.5266L14.2244 15.6417C15.025 15.3411 15.5626 14.5651 15.5626 13.7107V11.2023L16.6978 10.7766C16.8582 10.7165 16.9827 10.5862 17.0355 10.4228C17.0882 10.2592 17.0633 10.0808 16.9681 9.93798ZM2.36136 9.97204L3.22063 8.68348L8.1388 10.5278L7.27958 11.8166L2.36136 9.97204ZM8.43753 16.1885L4.17117 14.5885C3.80716 14.4519 3.56253 14.0989 3.56253 13.7107V11.6242L7.30228 13.0266C7.36746 13.0508 7.43412 13.0625 7.50003 13.0625C7.68387 13.0625 7.86112 12.972 7.96805 12.812L8.43753 12.1078V16.1885ZM14.4375 13.7107C14.4375 14.0989 14.1929 14.4519 13.8289 14.5885L9.56253 16.1885V12.1078L10.032 12.812C10.139 12.972 10.3162 13.0625 10.5 13.0625C10.566 13.0625 10.6326 13.0508 10.6978 13.0266L14.4375 11.6242V13.7107ZM10.7205 11.8166L9.86127 10.5278L14.7794 8.68348L15.6387 9.97204L10.7205 11.8166ZM8.43753 5.74999V2C8.43753 1.68946 8.68949 1.4375 9.00003 1.4375C9.31058 1.4375 9.56253 1.68946 9.56253 2V5.75C9.56253 6.06054 9.31058 6.3125 9.00003 6.3125C8.68949 6.3125 8.43753 6.06054 8.43753 5.74999ZM4.10233 4.6477C3.8826 4.42797 3.8826 4.07201 4.10233 3.85228C4.32206 3.63256 4.67802 3.63256 4.89774 3.85228L7.14774 6.10228C7.36747 6.32201 7.36747 6.67797 7.14774 6.8977C7.03788 7.00756 6.89433 7.06249 6.75004 7.06249C6.60576 7.06249 6.4622 7.00756 6.35234 6.8977L4.10233 4.6477ZM10.8523 6.8977C10.6326 6.67797 10.6326 6.32201 10.8523 6.10228L13.1023 3.85228C13.3221 3.63256 13.678 3.63256 13.8977 3.85228C14.1175 4.07201 14.1175 4.42797 13.8977 4.6477L11.6477 6.8977C11.5379 7.00756 11.3943 7.06249 11.25 7.06249C11.1058 7.06249 10.9622 7.00756 10.8523 6.8977Z" fill="white"/>
</svg>
