<svg width="24" height="24" viewBox="0 0 24 24" fill="none" xmlns="http://www.w3.org/2000/svg">
<path d="M19 17.25H10.7656C10.1367 17.25 9.60352 16.7793 9.5254 16.1548L9.34974 14.75H17.999C19.2632 14.75 20.3604 13.8936 20.667 12.667L21.667 8.66651C21.874 7.83936 21.6914 6.9795 21.1665 6.30762C20.6421 5.63526 19.8516 5.25 18.999 5.25H8.16181L7.9629 3.65918C7.79151 2.28564 6.61866 1.25 5.23438 1.25H3C2.58594 1.25 2.25 1.58594 2.25 2C2.25 2.41406 2.58594 2.75 3 2.75H5.23438C5.86329 2.75 6.39649 3.2207 6.47461 3.84521L8.03711 16.3408C8.1264 17.0565 8.49127 17.6757 9.01257 18.1092C8.54284 18.6027 8.25 19.2664 8.25 20C8.25 21.5166 9.4834 22.75 11 22.75C12.5166 22.75 13.75 21.5166 13.75 20C13.75 19.5476 13.6298 19.1268 13.4355 18.75H16.5645C16.3702 19.1268 16.25 19.5476 16.25 20C16.25 21.5166 17.4834 22.75 19 22.75C20.5166 22.75 21.75 21.5166 21.75 20C21.75 18.4834 20.5166 17.25 19 17.25ZM8.34937 6.75001H18.999C19.3867 6.75001 19.7456 6.9253 19.9844 7.23048C20.2227 7.53614 20.3057 7.92726 20.2119 8.30275L19.2119 12.3027C19.0723 12.8604 18.5737 13.25 17.999 13.25H9.16218L8.34937 6.75001ZM11 21.25C10.3105 21.25 9.75 20.6895 9.75 20C9.75 19.3106 10.3105 18.75 11 18.75C11.6895 18.75 12.25 19.3106 12.25 20C12.25 20.6895 11.6895 21.25 11 21.25ZM19 21.25C18.3106 21.25 17.75 20.6895 17.75 20C17.75 19.3106 18.3106 18.75 19 18.75C19.6894 18.75 20.25 19.3106 20.25 20C20.25 20.6895 19.6894 21.25 19 21.25Z" fill="#1F4592"/>
</svg>
