<svg width="18" height="19" viewBox="0 0 18 19" fill="none" xmlns="http://www.w3.org/2000/svg">
<path d="M15 2.1875H3C2.97807 2.1875 2.7513 2.2 2.65759 2.21533C1.67688 2.375 0.9375 3.28467 0.9375 4.33056C0.9375 5.42334 1.82666 6.3125 2.9198 6.3125H3.9375V14.75C3.9375 15.8875 4.86255 16.8125 6 16.8125H15C16.1375 16.8125 17.0625 15.8875 17.0625 14.75V4.25C17.0625 3.11255 16.1375 2.1875 15 2.1875ZM3.9375 5.1875H2.9198C2.44702 5.1875 2.0625 4.80297 2.0625 4.33056C2.0625 3.82959 2.39612 3.39746 2.8385 3.32569C3.11902 3.27881 3.39368 3.35425 3.60681 3.53516C3.81701 3.71387 3.9375 3.97461 3.9375 4.25V5.1875ZM15.9375 14.75C15.9375 15.2671 15.5171 15.6875 15 15.6875H6C5.48291 15.6875 5.0625 15.2671 5.0625 14.75V4.25C5.0625 3.91826 4.97672 3.60006 4.82927 3.3125H15C15.5171 3.3125 15.9375 3.73291 15.9375 4.25V14.75ZM11.0625 13.25C11.0625 13.5605 10.8105 13.8125 10.5 13.8125H6.75C6.43946 13.8125 6.1875 13.5605 6.1875 13.25C6.1875 12.9395 6.43946 12.6875 6.75 12.6875H10.5C10.8105 12.6875 11.0625 12.9395 11.0625 13.25ZM14.8125 11C14.8125 11.3105 14.5605 11.5625 14.25 11.5625H6.75C6.43946 11.5625 6.1875 11.3105 6.1875 11C6.1875 10.6895 6.43946 10.4375 6.75 10.4375H14.25C14.5605 10.4375 14.8125 10.6895 14.8125 11ZM14.8125 8.75C14.8125 9.06054 14.5605 9.3125 14.25 9.3125H6.75C6.43946 9.3125 6.1875 9.06054 6.1875 8.75C6.1875 8.43946 6.43946 8.1875 6.75 8.1875H14.25C14.5605 8.1875 14.8125 8.43946 14.8125 8.75ZM14.8125 5.75C14.8125 6.06054 14.5605 6.3125 14.25 6.3125H6.75C6.43946 6.3125 6.1875 6.06054 6.1875 5.75C6.1875 5.43946 6.43946 5.1875 6.75 5.1875H14.25C14.5605 5.1875 14.8125 5.43946 14.8125 5.75Z" fill="#F39135"/>
</svg>
