<svg width="167" height="39" viewBox="0 0 167 39" fill="none" xmlns="http://www.w3.org/2000/svg">
<rect width="167" height="39" rx="16" fill="white"/>
<rect x="0.5" y="0.5" width="166" height="38" rx="15.5" stroke="#333333" stroke-opacity="0.5"/>
<path d="M28.0674 15.0059C28.8877 15.0059 29.5645 15.1084 30.0977 15.3135C30.6354 15.514 31.0365 15.8216 31.3008 16.2363C31.5651 16.651 31.6973 17.1797 31.6973 17.8223C31.6973 18.3509 31.6016 18.793 31.4102 19.1484C31.2188 19.4993 30.9681 19.7842 30.6582 20.0029C30.3483 20.2217 30.0179 20.3903 29.667 20.5088L32.4082 25H31.0547L28.6074 20.8301H26.5293V25H25.3672V15.0059H28.0674ZM27.999 16.0107H26.5293V19.8457H28.1152C28.931 19.8457 29.5303 19.6794 29.9131 19.3467C30.3005 19.014 30.4941 18.5241 30.4941 17.877C30.4941 17.1979 30.2891 16.7171 29.8789 16.4346C29.4733 16.152 28.8467 16.0107 27.999 16.0107ZM40.2764 25L39.0459 21.8281H35.04L33.8164 25H32.6406L36.5508 14.9648H37.5967L41.4795 25H40.2764ZM38.6973 20.7959L37.5283 17.6445C37.501 17.5625 37.4554 17.4281 37.3916 17.2412C37.3324 17.0544 37.2708 16.8607 37.207 16.6602C37.1432 16.4596 37.0908 16.2979 37.0498 16.1748C37.0042 16.3617 36.9541 16.5485 36.8994 16.7354C36.8493 16.9176 36.7992 17.0885 36.749 17.248C36.6989 17.403 36.6556 17.5352 36.6191 17.6445L35.4297 20.7959H38.6973ZM48.5068 22.3408C48.5068 22.9333 48.3587 23.4391 48.0625 23.8584C47.7708 24.2731 47.3607 24.5898 46.832 24.8086C46.3034 25.0273 45.6813 25.1367 44.9658 25.1367C44.5876 25.1367 44.2298 25.1185 43.8926 25.082C43.5553 25.0456 43.2454 24.9932 42.9629 24.9248C42.6803 24.8564 42.432 24.7721 42.2178 24.6719V23.5576C42.5596 23.6989 42.9766 23.8311 43.4688 23.9541C43.9609 24.0726 44.4759 24.1318 45.0137 24.1318C45.515 24.1318 45.9388 24.0658 46.2852 23.9336C46.6315 23.7969 46.8936 23.6032 47.0713 23.3525C47.2536 23.0973 47.3447 22.792 47.3447 22.4365C47.3447 22.0947 47.2695 21.8099 47.1191 21.582C46.9688 21.3496 46.7181 21.14 46.3672 20.9531C46.0208 20.7617 45.5469 20.5589 44.9453 20.3447C44.5215 20.1943 44.1478 20.0303 43.8242 19.8525C43.5007 19.6702 43.2295 19.4652 43.0107 19.2373C42.792 19.0094 42.6257 18.7451 42.5117 18.4443C42.4023 18.1436 42.3477 17.7995 42.3477 17.4121C42.3477 16.8789 42.4821 16.4232 42.751 16.0449C43.0244 15.6621 43.4004 15.3704 43.8789 15.1699C44.362 14.9648 44.9157 14.8623 45.54 14.8623C46.0732 14.8623 46.5654 14.9124 47.0166 15.0127C47.4723 15.113 47.8893 15.2474 48.2676 15.416L47.9053 16.4141C47.5452 16.2637 47.1624 16.1383 46.7568 16.0381C46.3558 15.9378 45.9411 15.8877 45.5127 15.8877C45.0843 15.8877 44.722 15.9515 44.4258 16.0791C44.1341 16.2021 43.9108 16.3776 43.7559 16.6055C43.6009 16.8333 43.5234 17.1045 43.5234 17.4189C43.5234 17.7699 43.5964 18.0615 43.7422 18.2939C43.8926 18.5264 44.1296 18.7337 44.4531 18.916C44.7812 19.0938 45.2142 19.2806 45.752 19.4766C46.3398 19.6908 46.8389 19.9186 47.249 20.1602C47.6592 20.3971 47.9714 20.6888 48.1855 21.0352C48.3997 21.377 48.5068 21.8122 48.5068 22.3408ZM54.8232 15.8877C54.2718 15.8877 53.7751 15.9834 53.333 16.1748C52.8955 16.3617 52.5218 16.6351 52.2119 16.9951C51.9066 17.3506 51.6719 17.7812 51.5078 18.2871C51.3438 18.793 51.2617 19.3626 51.2617 19.9961C51.2617 20.8346 51.3916 21.5638 51.6514 22.1836C51.9157 22.7988 52.3076 23.2751 52.8271 23.6123C53.3512 23.9495 54.0052 24.1182 54.7891 24.1182C55.2357 24.1182 55.6549 24.0817 56.0469 24.0088C56.4434 23.9313 56.8285 23.8356 57.2021 23.7217V24.7334C56.8376 24.8701 56.4548 24.9704 56.0537 25.0342C55.6527 25.1025 55.1764 25.1367 54.625 25.1367C53.6087 25.1367 52.7588 24.9271 52.0752 24.5078C51.3962 24.084 50.8857 23.487 50.5439 22.7168C50.2067 21.9466 50.0381 21.0374 50.0381 19.9893C50.0381 19.2327 50.1429 18.5423 50.3525 17.918C50.5667 17.2891 50.8766 16.7467 51.2822 16.291C51.6924 15.8353 52.1937 15.4844 52.7861 15.2383C53.3831 14.9876 54.0667 14.8623 54.8369 14.8623C55.3428 14.8623 55.8304 14.9124 56.2998 15.0127C56.7692 15.113 57.193 15.2565 57.5713 15.4434L57.1064 16.4277C56.7874 16.2819 56.4365 16.1566 56.0537 16.0518C55.6755 15.9424 55.2653 15.8877 54.8232 15.8877ZM65.6377 25L64.4072 21.8281H60.4014L59.1777 25H58.002L61.9121 14.9648H62.958L66.8408 25H65.6377ZM64.0586 20.7959L62.8896 17.6445C62.8623 17.5625 62.8167 17.4281 62.7529 17.2412C62.6937 17.0544 62.6322 16.8607 62.5684 16.6602C62.5046 16.4596 62.4521 16.2979 62.4111 16.1748C62.3656 16.3617 62.3154 16.5485 62.2607 16.7354C62.2106 16.9176 62.1605 17.0885 62.1104 17.248C62.0602 17.403 62.0169 17.5352 61.9805 17.6445L60.791 20.7959H64.0586ZM76.165 19.9072C76.165 21.0329 75.96 21.974 75.5498 22.7305C75.1396 23.4824 74.5449 24.0498 73.7656 24.4326C72.9909 24.8109 72.0498 25 70.9424 25H68.2285V15.0059H71.2432C72.2594 15.0059 73.1344 15.1927 73.8682 15.5664C74.6019 15.9355 75.167 16.4847 75.5635 17.2139C75.9645 17.9385 76.165 18.8363 76.165 19.9072ZM74.9414 19.9482C74.9414 19.0505 74.791 18.3099 74.4902 17.7266C74.194 17.1432 73.7565 16.7103 73.1777 16.4277C72.6035 16.1406 71.8994 15.9971 71.0654 15.9971H69.3906V24.002H70.8057C72.182 24.002 73.2142 23.6624 73.9023 22.9834C74.5951 22.3044 74.9414 21.2926 74.9414 19.9482ZM87.0547 19.9893C87.0547 20.7594 86.9567 21.4613 86.7607 22.0947C86.5648 22.7236 86.2731 23.266 85.8857 23.7217C85.5029 24.1729 85.0267 24.5215 84.457 24.7676C83.8874 25.0137 83.2266 25.1367 82.4746 25.1367C81.6999 25.1367 81.0231 25.0137 80.4443 24.7676C79.8701 24.5215 79.3916 24.1706 79.0088 23.7148C78.6305 23.2591 78.3457 22.7145 78.1543 22.0811C77.9674 21.4476 77.874 20.7458 77.874 19.9756C77.874 18.9548 78.0426 18.0592 78.3799 17.2891C78.7171 16.5189 79.2275 15.9196 79.9111 15.4912C80.5993 15.0628 81.4606 14.8486 82.4951 14.8486C83.484 14.8486 84.3158 15.0605 84.9902 15.4844C85.6693 15.9082 86.182 16.5052 86.5283 17.2754C86.8792 18.041 87.0547 18.9456 87.0547 19.9893ZM79.0977 19.9893C79.0977 20.8369 79.2184 21.5706 79.46 22.1904C79.7015 22.8102 80.0706 23.2887 80.5674 23.626C81.0687 23.9632 81.7044 24.1318 82.4746 24.1318C83.2493 24.1318 83.8828 23.9632 84.375 23.626C84.8717 23.2887 85.2386 22.8102 85.4756 22.1904C85.7126 21.5706 85.8311 20.8369 85.8311 19.9893C85.8311 18.6995 85.5599 17.6924 85.0176 16.9678C84.4798 16.2386 83.639 15.874 82.4951 15.874C81.7204 15.874 81.0824 16.0404 80.5811 16.373C80.0798 16.7057 79.7061 17.1797 79.46 17.7949C79.2184 18.4056 79.0977 19.137 79.0977 19.9893ZM91.9834 15.0059C92.8037 15.0059 93.4805 15.1084 94.0137 15.3135C94.5514 15.514 94.9525 15.8216 95.2168 16.2363C95.4811 16.651 95.6133 17.1797 95.6133 17.8223C95.6133 18.3509 95.5176 18.793 95.3262 19.1484C95.1348 19.4993 94.8841 19.7842 94.5742 20.0029C94.2643 20.2217 93.9339 20.3903 93.583 20.5088L96.3242 25H94.9707L92.5234 20.8301H90.4453V25H89.2832V15.0059H91.9834ZM91.915 16.0107H90.4453V19.8457H92.0312C92.847 19.8457 93.4463 19.6794 93.8291 19.3467C94.2165 19.014 94.4102 18.5241 94.4102 17.877C94.4102 17.1979 94.2051 16.7171 93.7949 16.4346C93.3893 16.152 92.7627 16.0107 91.915 16.0107ZM103.488 25H97.9238V15.0059H103.488V16.0312H99.0859V19.2646H103.235V20.2764H99.0859V23.9746H103.488V25ZM111.343 22.3408C111.343 22.9333 111.195 23.4391 110.898 23.8584C110.607 24.2731 110.197 24.5898 109.668 24.8086C109.139 25.0273 108.517 25.1367 107.802 25.1367C107.424 25.1367 107.066 25.1185 106.729 25.082C106.391 25.0456 106.081 24.9932 105.799 24.9248C105.516 24.8564 105.268 24.7721 105.054 24.6719V23.5576C105.396 23.6989 105.812 23.8311 106.305 23.9541C106.797 24.0726 107.312 24.1318 107.85 24.1318C108.351 24.1318 108.775 24.0658 109.121 23.9336C109.467 23.7969 109.729 23.6032 109.907 23.3525C110.09 23.0973 110.181 22.792 110.181 22.4365C110.181 22.0947 110.105 21.8099 109.955 21.582C109.805 21.3496 109.554 21.14 109.203 20.9531C108.857 20.7617 108.383 20.5589 107.781 20.3447C107.357 20.1943 106.984 20.0303 106.66 19.8525C106.337 19.6702 106.065 19.4652 105.847 19.2373C105.628 19.0094 105.462 18.7451 105.348 18.4443C105.238 18.1436 105.184 17.7995 105.184 17.4121C105.184 16.8789 105.318 16.4232 105.587 16.0449C105.86 15.6621 106.236 15.3704 106.715 15.1699C107.198 14.9648 107.752 14.8623 108.376 14.8623C108.909 14.8623 109.401 14.9124 109.853 15.0127C110.308 15.113 110.725 15.2474 111.104 15.416L110.741 16.4141C110.381 16.2637 109.998 16.1383 109.593 16.0381C109.192 15.9378 108.777 15.8877 108.349 15.8877C107.92 15.8877 107.558 15.9515 107.262 16.0791C106.97 16.2021 106.747 16.3776 106.592 16.6055C106.437 16.8333 106.359 17.1045 106.359 17.4189C106.359 17.7699 106.432 18.0615 106.578 18.2939C106.729 18.5264 106.965 18.7337 107.289 18.916C107.617 19.0938 108.05 19.2806 108.588 19.4766C109.176 19.6908 109.675 19.9186 110.085 20.1602C110.495 20.3971 110.807 20.6888 111.021 21.0352C111.236 21.377 111.343 21.8122 111.343 22.3408Z" fill="#333333"/>
<g clip-path="url(#clip0_88_1751)">
<path d="M135.993 23.4855C135.901 23.4867 135.81 23.4679 135.726 23.4305C135.642 23.393 135.566 23.3377 135.503 23.2681L129.21 16.7464C128.93 16.4565 128.93 16.0072 129.21 15.7174C129.49 15.4275 129.923 15.4275 130.203 15.7174L136.007 21.7319L141.797 15.7319C142.077 15.442 142.51 15.442 142.79 15.7319C143.07 16.0217 143.07 16.471 142.79 16.7609L136.497 23.2826C136.357 23.4275 136.175 23.5 136.007 23.5L135.993 23.4855Z" fill="#333333" fill-opacity="0.5"/>
</g>
<defs>
<clipPath id="clip0_88_1751">
<rect width="14" height="8" fill="white" transform="translate(129 15.5)"/>
</clipPath>
</defs>
</svg>
