<?xml version="1.0" encoding="UTF-8" standalone="no"?>
<!-- Created with Inkscape (http://www.inkscape.org/) -->

<svg
   width="210mm"
   height="210mm"
   viewBox="0 0 210 210"
   version="1.1"
   id="svg1"
   xml:space="preserve"
   inkscape:export-filename="mapa de bits.svg"
   inkscape:export-xdpi="96"
   inkscape:export-ydpi="96"
   xmlns:inkscape="http://www.inkscape.org/namespaces/inkscape"
   xmlns:sodipodi="http://sodipodi.sourceforge.net/DTD/sodipodi-0.dtd"
   xmlns="http://www.w3.org/2000/svg"
   xmlns:svg="http://www.w3.org/2000/svg"><sodipodi:namedview
     id="namedview1"
     pagecolor="#ffffff"
     bordercolor="#000000"
     borderopacity="0.25"
     inkscape:showpageshadow="2"
     inkscape:pageopacity="0.0"
     inkscape:pagecheckerboard="0"
     inkscape:deskcolor="#d1d1d1"
     inkscape:document-units="mm"
     inkscape:export-bgcolor="#ffffff00"><inkscape:page
       x="0"
       y="0"
       width="210"
       height="210"
       id="page2"
       margin="0"
       bleed="0" /></sodipodi:namedview><defs
     id="defs1" /><g
     inkscape:label="Capa 1"
     inkscape:groupmode="layer"
     id="layer1"><path
       style="fill:#ff6726;fill-opacity:1;stroke-width:0.264583"
       d="m 73.204265,171.55597 c 0,0 -62.62552,-10.24782 -3.79549,-91.850768 C 128.23879,-1.8977426 183.65288,40.991247 183.65288,40.991247 c 0,0 -18.59788,-65.661904 -97.543965,-14.422847 -78.9461098,51.239057 -68.31875,120.69646 -68.31875,120.69646 0,0 1.13864,23.91156 22.77292,27.70704 21.63427,3.79549 32.64118,-3.41593 32.64118,-3.41593 z"
       id="path1" /><path
       style="fill:#ff901d;fill-opacity:0.996078;stroke-width:0.264583"
       d="m 34.919847,176.45125 c 0,0 65.03787,21.93581 108.685953,-35.37603 43.64809,-57.311829 16.32059,-92.230299 16.32059,-92.230299 l -3.54524,-3.46865 -4.04882,-1.63078 -4.83609,-0.73103 -3.76765,-0.0562 1.91194,-1.23714 3.43025,-1.34961 c 0,0 86.49697,-6.735882 25.04303,100.414569 -61.45393,107.15047 -132.243263,48.79163 -132.243263,48.79163 0,0 -4.0546,-4.75742 -4.65769,-6.76771 -0.60309,-2.01031 -2.29301,-6.35871 -2.29301,-6.35871 z"
       id="path2"
       sodipodi:nodetypes="cscccccccscscc" /></g></svg>
